<?xml version="1.0" encoding="UTF-8" standalone="no"?>
<svg xmlns:dc="http://purl.org/dc/elements/1.1/" xmlns:cc="http://creativecommons.org/ns#" xmlns:rdf="http://www.w3.org/1999/02/22-rdf-syntax-ns#"
    xmlns="http://www.w3.org/2000/svg" version="1.1" id="svg2" width="24" height="24" viewBox="0 0 24 24">
  <metadata
     id="metadata8">
    <rdf:RDF>
      <cc:Work
         rdf:about="">
        <dc:format>image/svg+xml</dc:format>
        <dc:type
           rdf:resource="http://purl.org/dc/dcmitype/StillImage" />
        <dc:title></dc:title>
      </cc:Work>
    </rdf:RDF>
  </metadata>
  <defs
     id="defs6" />
  <g
     id="g907"
     style="fill:#ffd700;fill-opacity:1"
     transform="matrix(0.99964476,0,0,0.99964476,-0.01441495,-0.05323751)">
    <circle
       cx="20.411299"
       cy="20.42034"
       r="2.6033628"
       id="path846-3-6-7"
       style="fill:#ffd700;fill-opacity:1;stroke:none;stroke-width:1.62915742;stroke-linecap:butt;stroke-linejoin:round;stroke-miterlimit:4;stroke-dasharray:none;stroke-opacity:1;paint-order:normal" />
    <circle
       cx="4.0780478"
       cy="19.359463"
       r="3.0553403"
       id="path846-3-6"
       style="fill:#ffd700;fill-opacity:1;stroke:none;stroke-width:1.91200006;stroke-linecap:butt;stroke-linejoin:round;stroke-miterlimit:4;stroke-dasharray:none;stroke-opacity:1;paint-order:normal" />
    <circle
       cx="18.75391"
       cy="3.6097579"
       r="2.5184186"
       id="path846-3"
       style="fill:#ffd700;fill-opacity:1;stroke:none;stroke-width:1.57600009;stroke-linecap:butt;stroke-linejoin:round;stroke-miterlimit:4;stroke-dasharray:none;stroke-opacity:1;paint-order:normal" />
    <circle
       cx="3.1703949"
       cy="5.2716589"
       r="2.1093354"
       id="path846"
       style="fill:#ffd700;fill-opacity:1;stroke:none;stroke-width:1.32000005;stroke-linecap:butt;stroke-linejoin:round;stroke-miterlimit:4;stroke-dasharray:none;stroke-opacity:1;paint-order:normal" />
    <path
       style="fill:#ffd700;fill-opacity:1;stroke-width:0.04302127"
       d="m 14.998991,16.626411 c -1.201849,-1.099759 -2.218572,-1.999562 -2.259386,-1.999562 -0.04081,0 -0.148397,0.05042 -0.239073,0.11203 -0.266927,0.181381 -0.797449,0.428858 -1.167257,0.544501 -0.523265,0.163631 -1.010758,0.220734 -1.6205725,0.189827 -0.5412135,-0.02743 -0.7980739,-0.07541 -1.3026844,-0.243332 -0.1566863,-0.05214 -0.3085259,-0.08573 -0.3374204,-0.07464 -0.028895,0.01109 -0.2538916,0.312969 -0.4999929,0.670846 -0.2461014,0.357877 -0.4704465,0.650686 -0.498545,0.650686 -0.028098,0 -0.087967,-0.04108 -0.1330418,-0.09129 -0.1495716,-0.166597 -0.5659634,-0.465764 -0.8961748,-0.643879 -0.179214,-0.09667 -0.3258438,-0.203257 -0.3258438,-0.23687 0,-0.03361 0.1935957,-0.340594 0.4302125,-0.682183 0.2366171,-0.341588 0.4302128,-0.653067 0.4302128,-0.692175 0,-0.03911 -0.078467,-0.16025 -0.1743708,-0.269202 C 5.2913807,12.59597 4.9792681,10.631007 5.6421628,9.0582493 5.8495986,8.5660959 5.8601379,8.6086841 5.4435816,8.2558265 5.2401359,8.0834916 5.0736803,7.931116 5.0736803,7.9172155 c 0,-0.013901 0.1611333,-0.1893629 0.3580743,-0.3899156 0.1969409,-0.2005525 0.425667,-0.4807747 0.5082803,-0.6227151 0.082613,-0.1419404 0.1779939,-0.2630434 0.2119574,-0.2691166 0.033963,-0.00607 0.2106774,0.1148998 0.3926981,0.2688294 0.1820208,0.1539296 0.3669628,0.2798717 0.410982,0.2798717 0.04402,0 0.1576236,-0.057059 0.2524533,-0.1267971 1.0988164,-0.8080787 2.5892859,-1.0828359 3.9530653,-0.7287186 0.405502,0.1052927 1.206008,0.481191 1.492408,0.7008001 0.110973,0.085093 0.240336,0.1547156 0.287473,0.1547156 0.04818,0 0.613212,-0.43321 1.290581,-0.9894892 0.662683,-0.5442189 1.222873,-0.9894892 1.244867,-0.9894892 0.02199,0 0.115141,0.1302932 0.206989,0.289541 0.09185,0.159247 0.326452,0.4528176 0.521334,0.6523789 0.233783,0.2393937 0.340926,0.378733 0.314932,0.409555 -0.02167,0.025694 -0.572313,0.4823067 -1.223655,1.0146949 -1.281901,1.0477986 -1.260716,1.0224134 -1.106136,1.3254144 0.15215,0.2982395 0.305905,0.8447026 0.37739,1.3412809 0.123844,0.860324 -0.02466,1.791244 -0.417667,2.618298 -0.09384,0.197481 -0.170623,0.385451 -0.170623,0.41771 0,0.03226 0.987339,0.961959 2.194086,2.065999 1.206746,1.104039 2.194085,2.017717 2.194085,2.030392 0,0.01268 -0.153848,0.165976 -0.341886,0.340667 -0.188038,0.17469 -0.43993,0.452413 -0.559758,0.617162 -0.119828,0.164749 -0.232174,0.299126 -0.249654,0.298617 -0.01748,-5.08e-4 -1.015119,-0.900729 -2.216966,-2.00049 z"
       id="path819" />
  </g>
</svg>
